HIERARCHY
ROOT Hips
{
	OFFSET 0.00000 0.00000 0.00000
	CHANNELS 6 Xposition Yposition Zposition Zrotation Yrotation Xrotation 
	JOINT LHipJoint
	{
		OFFSET 0 0 0
		CHANNELS 3 Zrotation Yrotation Xrotation
		JOINT LeftUpLeg
		{
			OFFSET 1.52977 -1.71332 0.88991
			CHANNELS 3 Zrotation Yrotation Xrotation
			JOINT LeftLeg
			{
				OFFSET 2.23949 -6.15296 0.00000
				CHANNELS 3 Zrotation Yrotation Xrotation
				JOINT LeftFoot
				{
					OFFSET 2.68396 -7.37412 0.00000
					CHANNELS 3 Zrotation Yrotation Xrotation
					JOINT LeftToeBase
					{
						OFFSET 0.20538 -0.56428 2.52710
						CHANNELS 3 Zrotation Yrotation Xrotation
						End Site
						{
							OFFSET 0.00000 -0.00000 1.29919
						}
					}
				}
			}
		}
	}
	JOINT RHipJoint
	{
		OFFSET 0 0 0
		CHANNELS 3 Zrotation Yrotation Xrotation
		JOINT RightUpLeg
		{
			OFFSET -1.45689 -1.71333 0.88991
			CHANNELS 3 Zrotation Yrotation Xrotation
			JOINT RightLeg
			{
				OFFSET -2.36700 -6.50329 0.00000
				CHANNELS 3 Zrotation Yrotation Xrotation
				JOINT RightFoot
				{
					OFFSET -2.69814 -7.41308 0.00000
					CHANNELS 3 Zrotation Yrotation Xrotation
					JOINT RightToeBase
					{
						OFFSET -0.18734 -0.51471 2.37479
						CHANNELS 3 Zrotation Yrotation Xrotation
						End Site
						{
							OFFSET -0.00000 -0.00000 1.22113
						}
					}
				}
			}
		}
	}
	JOINT LowerBack
	{
		OFFSET 0 0 0
		CHANNELS 3 Zrotation Yrotation Xrotation
		JOINT Spine
		{
			OFFSET 0.04294 2.14638 -0.31163
			CHANNELS 3 Zrotation Yrotation Xrotation
			JOINT Spine1
			{
				OFFSET -0.00400 2.17216 0.01486
				CHANNELS 3 Zrotation Yrotation Xrotation
				JOINT Neck
				{
					OFFSET 0 0 0
					CHANNELS 3 Zrotation Yrotation Xrotation
					JOINT Neck1
					{
						OFFSET 0.03869 1.76598 0.14916
						CHANNELS 3 Zrotation Yrotation Xrotation
						JOINT Head
						{
							OFFSET -0.00760 1.75513 -0.18948
							CHANNELS 3 Zrotation Yrotation Xrotation
							End Site
							{
								OFFSET -0.00601 1.82444 -0.08310
							}
						}
					}
				}
				JOINT LeftShoulder
				{
					OFFSET 0 0 0
					CHANNELS 3 Zrotation Yrotation Xrotation
					JOINT LeftArm
					{
						OFFSET 3.73696 0.92058 0.01733
						CHANNELS 3 Zrotation Yrotation Xrotation
						JOINT LeftForeArm
						{
							OFFSET 5.22771 -0.00000 0.00000
							CHANNELS 3 Zrotation Yrotation Xrotation
							JOINT LeftHand
							{
								OFFSET 3.45251 -0.00000 0.00000
								CHANNELS 3 Zrotation Yrotation Xrotation
								JOINT LeftFingerBase
								{
									OFFSET 0 0 0
									CHANNELS 3 Zrotation Yrotation Xrotation
									JOINT LeftHandIndex1
									{
										OFFSET 0.55212 -0.00000 0.00000
										CHANNELS 3 Zrotation Yrotation Xrotation
										End Site
										{
											OFFSET 0.44513 -0.00000 0.00000
										}
									}
								}
								JOINT LThumb
								{
									OFFSET 0 0 0
									CHANNELS 3 Zrotation Yrotation Xrotation
									End Site
									{
										OFFSET 0.45193 -0.00000 0.45193
									}
								}
							}
						}
					}
				}
				JOINT RightShoulder
				{
					OFFSET 0 0 0
					CHANNELS 3 Zrotation Yrotation Xrotation
					JOINT RightArm
					{
						OFFSET -3.63819 0.83094 -0.13694
						CHANNELS 3 Zrotation Yrotation Xrotation
						JOINT RightForeArm
						{
							OFFSET -5.23980 -0.00000 -0.00000
							CHANNELS 3 Zrotation Yrotation Xrotation
							JOINT RightHand
							{
								OFFSET -3.48042 -0.00000 -0.00000
								CHANNELS 3 Zrotation Yrotation Xrotation
								JOINT RightFingerBase
								{
									OFFSET 0 0 0
									CHANNELS 3 Zrotation Yrotation Xrotation
									JOINT RightHandIndex1
									{
										OFFSET -0.61871 -0.00000 0.00000
										CHANNELS 3 Zrotation Yrotation Xrotation
										End Site
										{
											OFFSET -0.49882 -0.00000 0.00000
										}
									}
								}
								JOINT RThumb
								{
									OFFSET 0 0 0
									CHANNELS 3 Zrotation Yrotation Xrotation
									End Site
									{
										OFFSET -0.50644 -0.00000 0.50644
									}
								}
							}
						}
					}
				}
			}
		}
	}
}
MOTION
Frames: 6
Frame Time: .0083333
46.7779 16.6575 -4.4461 0 0 0 0 0 0 -21 0 0 0 0 0 0 0 0 0 0 0 0 0 0 21 0 0 0 0 0 0 0 0 0 0 0 0 0 0 0 0 0 0 0 0 0 0 -16 0 0 21 0 0 11 0 0 0 -8 0 0 0 0 0 0 0 0 0 0 0 0 0 0 0 0 0 0 0 0 8 0 0 0 0 0 0 0 0 0 0 0 0 0 0 0 0 0
46.7779 16.6575 -4.4461 -83.4769 88.8767 -48.4274 0.0000 0.0000 0.0000 -16.9173 -8.4225 -45.9815 0.6884 5.3044 14.7789 0.0243 0.7069 -3.2938 0.2123 -2.9667 -8.1860 0.0000 0.0000 0.0000 6.5063 23.3562 -53.5107 -3.3344 -11.2176 33.0173 -0.2479 -10.2105 -17.9519 -0.2860 -3.4394 9.5047 0.8556 -1.2032 22.4986 0.5877 -0.9402 5.6885 0.3864 -0.3076 -6.3264 1.9172 -0.1117 4.6150 1.4234 0.9570 -23.4869 0.0310 0.4226 -8.0031 -0.0000 0.0000 0.0000 -83.9670 -4.7272 37.8049 23.4623 -34.5905 -7.3991 -0.0000 0.0000 -24.9085 20.8279 8.5903 3.2522 -7.1250 0.0000 -0.0000 -5.2624 39.1095 0.7662 -0.0000 0.0000 0.0000 85.6506 8.6153 37.6023 -23.9726 35.1353 -7.6908 0.0000 -0.0000 -7.1644 -21.2383 -6.6938 2.5938 7.1250 -0.0000 -0.0000 4.6904 -37.1204 0.9118
46.7714 16.6544 -4.4491 -84.9887 88.8565 -49.7714 0.0000 0.0000 0.0000 -16.8050 -8.5680 -46.2081 0.6963 5.3343 14.8645 0.0238 0.7804 -3.3148 0.2120 -2.9646 -8.1802 0.0000 0.0000 0.0000 6.4781 23.3141 -53.7621 -3.3373 -11.2220 33.0325 -0.2408 -10.2103 -17.8652 -0.2733 -3.3624 9.2895 0.9555 -1.2068 22.3267 0.5809 -0.9305 5.6572 0.3174 -0.3061 -6.2737 1.7539 -0.0885 4.5337 1.5576 0.9929 -23.3867 0.1007 0.4426 -7.9555 -0.0000 -0.0000 0.0000 -83.9417 -4.7901 37.7232 23.4756 -34.6048 -7.4066 -0.0000 0.0000 -24.7286 20.9123 8.5269 3.2427 -7.1250 0.0000 -0.0000 -5.1816 39.0488 0.7622 -0.0000 -0.0000 0.0000 85.6755 8.5657 37.5678 -24.0306 35.1966 -7.7242 0.0000 -0.0000 -7.1770 -21.2682 -6.6896 2.5962 7.1250 -0.0000 -0.0000 4.6647 -37.1177 0.9071
46.7636 16.6540 -4.4517 -85.7487 88.8495 -50.3665 0.0000 0.0000 0.0000 -16.7383 -8.6726 -46.4512 0.7029 5.3589 14.9351 0.0234 0.8007 -3.3041 0.2079 -2.9354 -8.0990 0.0000 0.0000 0.0000 6.2706 23.4902 -53.9796 -3.3419 -11.2289 33.0559 -0.2346 -10.3788 -17.9857 -0.2737 -3.3651 9.2970 0.9969 -1.2152 22.1919 0.5833 -0.9387 5.6220 0.2972 -0.3124 -6.2432 1.7853 -0.0916 4.4945 1.5375 0.9858 -23.3548 0.0894 0.4386 -7.9376 -0.0000 0.0000 0.0000 -83.9494 -4.8309 37.5627 23.5034 -34.6347 -7.4224 -0.0000 0.0000 -24.4827 20.9173 8.5834 3.2649 -7.1250 0.0000 -0.0000 -5.1846 39.1091 0.7549 -0.0000 0.0000 0.0000 85.6565 8.5319 37.6402 -24.0830 35.2519 -7.7544 0.0000 -0.0000 -7.2608 -21.2908 -6.7089 2.6067 7.1250 -0.0000 -0.0000 4.6476 -37.1398 0.9012
46.7554 16.6495 -4.4538 -84.8370 88.8753 -49.2864 0.0000 0.0000 0.0000 -16.6716 -8.8424 -46.6784 0.7102 5.3860 15.0127 0.0222 0.9265 -3.3205 0.2094 -2.9464 -8.1297 0.0000 0.0000 0.0000 6.1470 23.4818 -54.2510 -3.3479 -11.2380 33.0868 -0.2292 -10.3883 -17.9311 -0.2697 -3.3408 9.2291 1.0011 -1.2052 22.0668 0.5732 -0.9315 5.5946 0.2806 -0.3107 -6.2087 1.8554 -0.1111 4.5671 1.4741 0.9588 -23.4457 0.0583 0.4249 -7.9809 -0.0000 -0.0000 0.0000 -83.9446 -4.8798 37.4528 23.5760 -34.7127 -7.4638 -0.0000 0.0000 -24.2113 20.9520 8.5303 3.2507 -7.1250 0.0000 -0.0000 -5.1478 39.0554 0.7563 -0.0000 -0.0000 0.0000 85.6584 8.5057 37.6136 -24.1478 35.3202 -7.7918 0.0000 -0.0000 -7.2939 -21.2455 -6.7379 2.6118 7.1250 -0.0000 -0.0000 4.6889 -37.1679 0.9061
46.7475 16.6463 -4.4560 -84.9408 88.8820 -49.2217 0.0000 0.0000 0.0000 -16.5963 -8.9841 -46.9104 0.7169 5.4109 15.0843 0.0213 1.0100 -3.3278 0.2087 -2.9415 -8.1159 0.0000 0.0000 0.0000 6.0216 23.5148 -54.5078 -3.3533 -11.2462 33.1147 -0.2234 -10.4376 -17.9184 -0.2662 -3.3191 9.1684 1.0301 -1.2040 21.9386 0.5691 -0.9299 5.5654 0.2579 -0.3119 -6.1747 1.8646 -0.1109 4.5792 1.4600 0.9592 -23.4754 0.0519 0.4258 -7.9930 -0.0000 0.0000 0.0000 -83.9399 -4.9257 37.3308 23.6354 -34.7763 -7.4976 -0.0000 0.0000 -23.9808 20.9978 8.5148 3.2526 -7.1250 0.0000 -0.0000 -5.1063 39.0423 0.7518 -0.0000 0.0000 0.0000 85.6574 8.4791 37.6175 -24.2043 35.3795 -7.8245 0.0000 -0.0000 -7.3337 -21.2453 -6.7472 2.6153 7.1250 -0.0000 -0.0000 4.6901 -37.1777 0.9052
